<?xml version="1.0" encoding="UTF-8" standalone="no"?>
<!-- Created with Inkscape (http://www.inkscape.org/) -->

<svg
   xmlns:dc="http://purl.org/dc/elements/1.1/"
   xmlns:cc="http://creativecommons.org/ns#"
   xmlns:rdf="http://www.w3.org/1999/02/22-rdf-syntax-ns#"
   xmlns:svg="http://www.w3.org/2000/svg"
   xmlns="http://www.w3.org/2000/svg"
   xmlns:sodipodi="http://sodipodi.sourceforge.net/DTD/sodipodi-0.dtd"
   xmlns:inkscape="http://www.inkscape.org/namespaces/inkscape"
   width="744.09448819"
   height="1052.3622047"
   id="svg2996"
   version="1.1"
   inkscape:version="0.48.5 r10040"
   sodipodi:docname="New document 2">
  <defs
     id="defs2998" />
  <sodipodi:namedview
     id="base"
     pagecolor="#ffffff"
     bordercolor="#666666"
     borderopacity="1.0"
     inkscape:pageopacity="0.0"
     inkscape:pageshadow="2"
     inkscape:zoom="4"
     inkscape:cx="117.74719"
     inkscape:cy="666.52416"
     inkscape:document-units="px"
     inkscape:current-layer="layer1"
     showgrid="false"
     inkscape:snap-global="false"
     inkscape:window-width="1920"
     inkscape:window-height="1031"
     inkscape:window-x="0"
     inkscape:window-y="25"
     inkscape:window-maximized="1">
    <inkscape:grid
       type="xygrid"
       id="grid3004" />
  </sodipodi:namedview>
  <metadata
     id="metadata3001">
    <rdf:RDF>
      <cc:Work
         rdf:about="">
        <dc:format>image/svg+xml</dc:format>
        <dc:type
           rdf:resource="http://purl.org/dc/dcmitype/StillImage" />
        <dc:title></dc:title>
      </cc:Work>
    </rdf:RDF>
  </metadata>
  <g
     inkscape:label="Layer 1"
     inkscape:groupmode="layer"
     id="layer1">
    <rect
       style="fill:#333333;fill-opacity:0.94117647000000004;stroke:none"
       id="rect3006"
       width="35"
       height="35"
       x="95"
       y="327.36218"
       ry="3.1885846" />
    <text
       xml:space="preserve"
       style="font-size:40px;font-style:normal;font-variant:normal;font-weight:normal;font-stretch:normal;line-height:125%;letter-spacing:0px;word-spacing:0px;fill:#000000;fill-opacity:1;stroke:none;font-family:Fugaz One;-inkscape-font-specification:Fugaz One"
       x="98"
       y="359.36218"
       id="text3008"
       sodipodi:linespacing="125%"><tspan
         sodipodi:role="line"
         id="tspan3010"
         x="98"
         y="359.36218">N</tspan></text>
    <rect
       ry="3.1885846"
       y="327.36218"
       x="160"
       height="35"
       width="35"
       id="rect3012"
       style="fill:#333333;fill-opacity:0.94117647;stroke:none" />
    <path
       style="fill:none;stroke:#000000;stroke-width:1px;stroke-linecap:butt;stroke-linejoin:miter;stroke-opacity:1"
       d="m 165.08929,357.43366 0,-25 5,0 15,15 0,-15 5,0 0,25 -3,0 -17,-17 0,17 z"
       id="path3014"
       inkscape:connector-curvature="0"
       sodipodi:nodetypes="ccccccccccc" />
    <rect
       ry="3.1885846"
       y="344.36218"
       x="-26"
       height="35"
       width="35"
       id="rect3016"
       style="fill:#333333;fill-opacity:0.94117647;stroke:none" />
    <text
       sodipodi:linespacing="125%"
       id="text3018"
       y="376.36218"
       x="-23"
       style="font-size:40px;font-style:normal;font-variant:normal;font-weight:normal;font-stretch:normal;line-height:125%;letter-spacing:0px;word-spacing:0px;fill:#000000;fill-opacity:1;stroke:none;font-family:Fugaz One;-inkscape-font-specification:Fugaz One"
       xml:space="preserve"><tspan
         y="376.36218"
         x="-23"
         id="tspan3020"
         sodipodi:role="line">N</tspan></text>
    <text
       sodipodi:linespacing="125%"
       id="text3022"
       y="354.72473"
       x="102.15386"
       style="font-size:38.39686584px;font-style:normal;font-variant:normal;font-weight:normal;font-stretch:normal;line-height:125%;letter-spacing:0px;word-spacing:0px;fill:#ffffff;fill-opacity:1;stroke:none;font-family:Fugaz One;-inkscape-font-specification:Fugaz One"
       xml:space="preserve"
       inkscape:transform-center-x="-12.568575"
       inkscape:transform-center-y="-15.694642"
       transform="matrix(0.95992163,-0.09887803,0,1.0417517,0,0)"><tspan
         y="354.72473"
         x="102.15386"
         id="tspan3024"
         sodipodi:role="line">N</tspan></text>
    <g
       id="g3871">
      <rect
         ry="3.1885846"
         y="331.74347"
         x="38.939339"
         height="35"
         width="35"
         id="rect3026"
         style="fill:#333333;fill-opacity:0.94117647;stroke:none" />
      <path
         style="fill:#000000;fill-opacity:1;stroke:#000000;stroke-width:0;stroke-linecap:butt;stroke-linejoin:miter;stroke-miterlimit:4;stroke-opacity:1;stroke-dasharray:none"
         d="m 43.775586,364.36502 c -0.949219,-0.0937 -1.621093,-1.10157 -1.753906,-2.07031 l 1.246094,-0.64063 1.800781,1.42188 z"
         id="path3859"
         inkscape:connector-curvature="0"
         sodipodi:nodetypes="ccccc" />
      <text
         sodipodi:linespacing="125%"
         id="text3028"
         y="364.36218"
         x="43"
         style="font-size:40px;font-style:normal;font-variant:normal;font-weight:normal;font-stretch:normal;line-height:125%;letter-spacing:0px;word-spacing:0px;fill:#000000;fill-opacity:1;stroke:none;font-family:Fugaz One;-inkscape-font-specification:Fugaz One"
         xml:space="preserve"><tspan
           y="364.36218"
           x="43"
           id="tspan3030"
           sodipodi:role="line">N</tspan></text>
      <text
         xml:space="preserve"
         style="font-size:40px;font-style:normal;font-variant:normal;font-weight:normal;font-stretch:normal;line-height:125%;letter-spacing:0px;word-spacing:0px;fill:#ffffff;fill-opacity:1;stroke:#000000;font-family:Fugaz One;-inkscape-font-specification:Fugaz One;stroke-opacity:1;stroke-width:0.001;stroke-miterlimit:4;stroke-dasharray:none"
         x="42.747467"
         y="363.98334"
         id="text3032"
         sodipodi:linespacing="125%"><tspan
           sodipodi:role="line"
           id="tspan3034"
           x="42.747467"
           y="363.98334">N</tspan></text>
      <text
         sodipodi:linespacing="125%"
         id="text3804"
         y="363.73077"
         x="42.431801"
         style="font-size:40px;font-style:normal;font-variant:normal;font-weight:normal;font-stretch:normal;line-height:125%;letter-spacing:0px;word-spacing:0px;fill:#ffffff;fill-opacity:1;stroke:#000000;stroke-width:0.1;stroke-miterlimit:4;stroke-opacity:1;stroke-dasharray:none;font-family:Fugaz One;-inkscape-font-specification:Fugaz One"
         xml:space="preserve"><tspan
           y="363.73077"
           x="42.431801"
           id="tspan3806"
           sodipodi:role="line">N</tspan></text>
      <text
         xml:space="preserve"
         style="font-size:40px;font-style:normal;font-variant:normal;font-weight:normal;font-stretch:normal;line-height:125%;letter-spacing:0px;word-spacing:0px;fill:#ffffff;fill-opacity:1;stroke:#000000;stroke-width:0.1;stroke-miterlimit:4;stroke-opacity:1;stroke-dasharray:none;font-family:Fugaz One;-inkscape-font-specification:Fugaz One"
         x="42.16394"
         y="363.41824"
         id="text3808"
         sodipodi:linespacing="125%"><tspan
           sodipodi:role="line"
           id="tspan3810"
           x="42.16394"
           y="363.41824">N</tspan></text>
      <text
         sodipodi:linespacing="125%"
         id="text3812"
         y="363.06107"
         x="41.851437"
         style="font-size:40px;font-style:normal;font-variant:normal;font-weight:normal;font-stretch:normal;line-height:125%;letter-spacing:0px;word-spacing:0px;fill:#ffffff;fill-opacity:1;stroke:#000000;stroke-width:0.1;stroke-miterlimit:4;stroke-opacity:1;stroke-dasharray:none;font-family:Fugaz One;-inkscape-font-specification:Fugaz One"
         xml:space="preserve"><tspan
           y="363.06107"
           x="41.851437"
           id="tspan3814"
           sodipodi:role="line">N</tspan></text>
      <text
         xml:space="preserve"
         style="font-size:40px;font-style:normal;font-variant:normal;font-weight:normal;font-stretch:normal;line-height:125%;letter-spacing:0px;word-spacing:0px;fill:#ffffff;fill-opacity:1;stroke:#000000;stroke-width:0.1;stroke-miterlimit:4;stroke-opacity:1;stroke-dasharray:none;font-family:Fugaz One;-inkscape-font-specification:Fugaz One"
         x="41.538933"
         y="362.65924"
         id="text3816"
         sodipodi:linespacing="125%"><tspan
           sodipodi:role="line"
           id="tspan3818"
           x="41.538933"
           y="362.65924">N</tspan></text>
      <text
         xml:space="preserve"
         style="font-size:40px;font-style:normal;font-variant:normal;font-weight:normal;font-stretch:normal;line-height:125%;letter-spacing:0px;word-spacing:0px;fill:#000000;fill-opacity:1;stroke:none;font-family:Fugaz One;-inkscape-font-specification:Fugaz One"
         x="41.214264"
         y="362.30841"
         id="text3820"
         sodipodi:linespacing="125%"><tspan
           sodipodi:role="line"
           id="tspan3822"
           x="41.214264"
           y="362.30841">N</tspan></text>
    </g>
    <g
       id="g3861"
       transform="translate(-3.1819805,-1.4142136)">
      <rect
         ry="3.1885846"
         y="376.56845"
         x="49.604973"
         height="35"
         width="35"
         id="rect3824"
         style="fill:#333333;fill-opacity:0.94117647;stroke:none" />
      <path
         sodipodi:nodetypes="ccccc"
         inkscape:connector-curvature="0"
         id="path3857"
         d="m 54.647353,409.50021 c -1.027344,-0.32812 -1.964843,-1.86719 -1.863281,-2.19531 l 1.355469,-0.51563 1.800781,1.42188 z"
         style="fill:#000000;fill-opacity:1;stroke:#000000;stroke-width:0;stroke-linecap:butt;stroke-linejoin:miter;stroke-miterlimit:4;stroke-opacity:1;stroke-dasharray:none" />
      <g
         style="font-size:40px;font-style:normal;font-variant:normal;font-weight:normal;font-stretch:normal;line-height:125%;letter-spacing:0px;word-spacing:0px;fill:#000000;fill-opacity:1;stroke:none;font-family:Fugaz One;-inkscape-font-specification:Fugaz One"
         id="text3826">
        <path
           d="m 81.937865,380.70781 -5.04,28.8 -7.24,0 -5.04,-15.76 -2.72,15.76 -7.24,0 5.08,-28.8 7.8775,0 4.96,14.72 2.1625,-14.72 7.2,0"
           id="path3894"
           inkscape:connector-curvature="0"
           sodipodi:nodetypes="ccccccccccc" />
      </g>
      <g
         transform="translate(8.131728,-6.0104076)"
         id="text3830"
         style="font-size:38.28133774px;font-style:normal;font-variant:normal;font-weight:normal;font-stretch:normal;line-height:125%;letter-spacing:0px;word-spacing:0px;fill:#ffffff;fill-opacity:1;stroke:none;font-family:Fugaz One;-inkscape-font-specification:Fugaz One">
        <path
           sodipodi:nodetypes="ccccccccccccccc"
           inkscape:connector-curvature="0"
           id="path3851"
           d="m 50,384.96875 -4.84375,27.5625 1.875,2.1875 6.28125,0 L 55.78125,400.5 59.5,412.53125 l 1.875,2.1875 6.9375,0 4.8125,-27.5625 -1.875,-2.1875 -6.101602,0.0884 -2.62408,12.58211 L 59,387.15625 l -1.875,-2.1875 z" />
      </g>
      <g
         style="font-size:40px;font-style:normal;font-variant:normal;font-weight:normal;font-stretch:normal;line-height:125%;letter-spacing:0px;word-spacing:0px;fill:#000000;fill-opacity:1;stroke:none;font-family:Fugaz One;-inkscape-font-specification:Fugaz One"
         id="text3842">
        <path
           d="m 80.057502,378.51274 -5.04,28.8 -7.24,0 -5.04,-15.76 -2.72,15.76 -7.24,0 5.08,-28.8 7.78375,0 4.55375,13.9075 2.6625,-13.9075 7.2,0"
           id="path3897"
           inkscape:connector-curvature="0"
           sodipodi:nodetypes="ccccccccccc" />
      </g>
    </g>
    <g
       style="font-size:38.28133774px;font-style:normal;font-variant:normal;font-weight:normal;font-stretch:normal;line-height:125%;letter-spacing:0px;word-spacing:0px;fill:#ffffff;fill-opacity:1;stroke:none;font-family:Fugaz One;-inkscape-font-specification:Fugaz One"
       id="text3846" />
    <rect
       style="fill:#333333;fill-opacity:0.94117647;stroke:none"
       id="rect3899"
       width="35"
       height="35"
       x="119.60723"
       y="434.82297"
       ry="3.1885846" />
    <text
       xml:space="preserve"
       style="font-size:40px;font-style:normal;font-variant:normal;font-weight:normal;font-stretch:normal;line-height:125%;letter-spacing:0px;word-spacing:0px;fill:#000000;fill-opacity:1;stroke:none;font-family:Fugaz One;-inkscape-font-specification:Fugaz One"
       x="124.375"
       y="468.23718"
       id="text3901"
       sodipodi:linespacing="125%"><tspan
         sodipodi:role="line"
         id="tspan3903"
         x="124.375"
         y="468.23718">N</tspan></text>
    <g
       style="font-size:40px;font-style:normal;font-variant:normal;font-weight:normal;font-stretch:normal;line-height:125%;letter-spacing:0px;word-spacing:0px;fill:#ffffff;fill-opacity:1;stroke:none;font-family:Fugaz One;-inkscape-font-specification:Fugaz One"
       id="text3905" />
    <path
       style="font-size:40px;font-style:normal;font-variant:normal;font-weight:normal;font-stretch:normal;line-height:125%;letter-spacing:0px;word-spacing:0px;fill:#ffffff;fill-opacity:1;stroke:#000000;font-family:Fugaz One;-inkscape-font-specification:Fugaz One;stroke-width:0.1"
       d="m 130.90625,440.28125 -4.78125,27.125 5.5625,0 2.78906,-16.15625 1.04688,-0.0546 5.19531,16.21094 5.96875,0 4.71875,-27.125 -5.5,0 -2.67187,14.79687 -1.15626,0.0156 -5.01562,-14.8125 z"
       id="path3920"
       inkscape:connector-curvature="0"
       sodipodi:nodetypes="ccccccccccccc" />
    <text
       sodipodi:linespacing="125%"
       id="text3914"
       y="452.11218"
       x="75.25"
       style="font-size:40px;font-style:normal;font-variant:normal;font-weight:normal;font-stretch:normal;line-height:125%;letter-spacing:0px;word-spacing:0px;fill:#ffffff;fill-opacity:1;stroke:#800000;font-family:Fugaz One;-inkscape-font-specification:Fugaz One"
       xml:space="preserve"><tspan
         y="452.11218"
         x="75.25"
         id="tspan3916"
         sodipodi:role="line">N</tspan></text>
    <rect
       ry="3.1885846"
       y="379.11218"
       x="163.375"
       height="35"
       width="35"
       id="rect3923"
       style="fill:#333333;fill-opacity:0.94117647;stroke:none" />
    <text
       sodipodi:linespacing="125%"
       id="text3925"
       y="411.11218"
       x="166.375"
       style="font-size:40px;font-style:normal;font-variant:normal;font-weight:normal;font-stretch:normal;line-height:125%;letter-spacing:0px;word-spacing:0px;fill:#000000;fill-opacity:1;stroke:none;font-family:Fugaz One;-inkscape-font-specification:Fugaz One"
       xml:space="preserve"><tspan
         y="411.11218"
         x="166.375"
         id="tspan3927"
         sodipodi:role="line">N</tspan></text>
    <path
       sodipodi:nodetypes="ccccccccccccc"
       inkscape:connector-curvature="0"
       id="path3929"
       d="m 172.90625,383.15625 -4.78125,27.125 5.5625,0 2.78906,-16.15625 1.04688,-0.0546 5.19531,16.21094 5.96875,0 4.71875,-27.125 -5.5,0 -2.67187,14.79687 -1.15626,0.0156 -5.01562,-14.8125 z"
       style="font-size:40px;font-style:normal;font-variant:normal;font-weight:normal;font-stretch:normal;line-height:125%;letter-spacing:0px;word-spacing:0px;fill:#ffffff;fill-opacity:1;stroke:none;font-family:Fugaz One;-inkscape-font-specification:Fugaz One" />
    <path
       style="font-size:40px;font-style:normal;font-variant:normal;font-weight:normal;font-stretch:normal;line-height:125%;letter-spacing:0px;word-spacing:0px;fill:#ffffff;fill-opacity:1;stroke:#000000;stroke-width:0.1;font-family:Fugaz One;-inkscape-font-specification:Fugaz One"
       d="m 130.53125,439.90625 -4.78125,27.125 5.5625,0 2.78906,-16.15625 1.04688,-0.0546 5.19531,16.21094 5.96875,0 4.71875,-27.125 -5.5,0 -2.67187,14.79687 -1.15626,0.0156 -5.01562,-14.8125 z"
       id="path3933"
       inkscape:connector-curvature="0"
       sodipodi:nodetypes="ccccccccccccc" />
    <path
       style="font-size:40px;font-style:normal;font-variant:normal;font-weight:normal;font-stretch:normal;line-height:125%;letter-spacing:0px;word-spacing:0px;fill:#ffffff;fill-opacity:1;stroke:#000000;stroke-width:0.1;font-family:Fugaz One;-inkscape-font-specification:Fugaz One"
       d="m 130.15625,439.53125 -4.78125,27.125 5.5625,0 2.78906,-16.15625 1.04688,-0.0546 5.19531,16.21094 5.96875,0 4.71875,-27.125 -5.5,0 -2.67187,14.79687 -1.15626,0.0156 -5.01562,-14.8125 z"
       id="path3937"
       inkscape:connector-curvature="0"
       sodipodi:nodetypes="ccccccccccccc" />
    <path
       style="font-size:40px;font-style:normal;font-variant:normal;font-weight:normal;font-stretch:normal;line-height:125%;letter-spacing:0px;word-spacing:0px;fill:#ffffff;fill-opacity:1;stroke:#000000;stroke-width:0.1;font-family:Fugaz One;-inkscape-font-specification:Fugaz One"
       d="m 129.78125,439.15625 -4.78125,27.125 5.5625,0 2.78906,-16.15625 1.04688,-0.0546 5.19531,16.21094 5.96875,0 4.71875,-27.125 -5.5,0 -2.67187,14.79687 -1.15626,0.0156 -5.01562,-14.8125 z"
       id="path3941"
       inkscape:connector-curvature="0"
       sodipodi:nodetypes="ccccccccccccc" />
    <path
       style="font-size:40px;font-style:normal;font-variant:normal;font-weight:normal;font-stretch:normal;line-height:125%;letter-spacing:0px;word-spacing:0px;fill:#ffffff;fill-opacity:1;stroke:#000000;stroke-width:0.1;font-family:Fugaz One;-inkscape-font-specification:Fugaz One"
       d="m 129.40625,438.78125 -4.78125,27.125 5.5625,0 2.78906,-16.15625 1.04688,-0.0546 5.19531,16.21094 5.96875,0 4.71875,-27.125 -5.5,0 -2.67187,14.79687 -1.15626,0.0156 -5.01562,-14.8125 z"
       id="path3945"
       inkscape:connector-curvature="0"
       sodipodi:nodetypes="ccccccccccccc" />
    <path
       style="font-size:40px;font-style:normal;font-variant:normal;font-weight:normal;font-stretch:normal;line-height:125%;letter-spacing:0px;word-spacing:0px;fill:#ffffff;fill-opacity:1;stroke:#000000;stroke-width:0.1;font-family:Fugaz One;-inkscape-font-specification:Fugaz One"
       d="m 129.03125,438.40625 -4.78125,27.125 5.5625,0 2.78906,-16.15625 1.04688,-0.0546 5.19531,16.21094 5.96875,0 4.71875,-27.125 -5.5,0 -2.67187,14.79687 -1.15626,0.0156 -5.01562,-14.8125 z"
       id="path3949"
       inkscape:connector-curvature="0"
       sodipodi:nodetypes="ccccccccccccc" />
    <g
       id="g4035"
       transform="translate(41.18897,-65.76093)">
      <rect
         style="fill:#333333;fill-opacity:0.94117647;stroke:none"
         id="rect3963"
         width="35"
         height="35"
         x="196.85864"
         y="439.2424"
         ry="3.1885846" />
      <text
         xml:space="preserve"
         style="font-size:40px;font-style:normal;font-variant:normal;font-weight:normal;font-stretch:normal;line-height:125%;letter-spacing:0px;word-spacing:0px;fill:#000000;fill-opacity:1;stroke:none;font-family:Fugaz One;-inkscape-font-specification:Fugaz One"
         x="199.85864"
         y="471.2424"
         id="text3965"
         sodipodi:linespacing="125%"><tspan
           sodipodi:role="line"
           id="tspan3967"
           x="199.85864"
           y="471.2424">N</tspan></text>
      <path
         style="font-size:40px;font-style:normal;font-variant:normal;font-weight:normal;font-stretch:normal;line-height:125%;letter-spacing:0px;word-spacing:0px;fill:#ffffff;fill-opacity:1;stroke:#000000;stroke-width:0.1;font-family:Fugaz One;-inkscape-font-specification:Fugaz One"
         d="m 206.3899,443.28645 -4.78125,27.125 5.5625,0 2.78906,-16.15625 1.04688,-0.0546 5.19531,16.21094 5.96875,0 4.71875,-27.125 -5.5,0 -2.67187,14.79687 -1.15626,0.0156 -5.01562,-14.8125 z"
         id="path3969"
         inkscape:connector-curvature="0"
         sodipodi:nodetypes="ccccccccccccc" />
      <path
         sodipodi:nodetypes="ccccccccccccc"
         inkscape:connector-curvature="0"
         id="path3971"
         d="m 206.2024,443.09895 -4.78125,27.125 5.5625,0 2.78906,-16.15625 1.04688,-0.0546 5.19531,16.21094 5.96875,0 4.71875,-27.125 -5.5,0 -2.67187,14.79687 -1.15626,0.0156 -5.01562,-14.8125 z"
         style="font-size:40px;font-style:normal;font-variant:normal;font-weight:normal;font-stretch:normal;line-height:125%;letter-spacing:0px;word-spacing:0px;fill:#ffffff;fill-opacity:1;stroke:#000000;stroke-width:0.1;font-family:Fugaz One;-inkscape-font-specification:Fugaz One" />
      <path
         style="font-size:40px;font-style:normal;font-variant:normal;font-weight:normal;font-stretch:normal;line-height:125%;letter-spacing:0px;word-spacing:0px;fill:#ffffff;fill-opacity:1;stroke:#000000;stroke-width:0.1;font-family:Fugaz One;-inkscape-font-specification:Fugaz One"
         d="m 206.0149,442.91145 -4.78125,27.125 5.5625,0 2.78906,-16.15625 1.04688,-0.0546 5.19531,16.21094 5.96875,0 4.71875,-27.125 -5.5,0 -2.67187,14.79687 -1.15626,0.0156 -5.01562,-14.8125 z"
         id="path3973"
         inkscape:connector-curvature="0"
         sodipodi:nodetypes="ccccccccccccc" />
      <path
         sodipodi:nodetypes="ccccccccccccc"
         inkscape:connector-curvature="0"
         id="path3975"
         d="m 205.8274,442.72395 -4.78125,27.125 5.5625,0 2.78906,-16.15625 1.04688,-0.0546 5.19531,16.21094 5.96875,0 4.71875,-27.125 -5.5,0 -2.67187,14.79687 -1.15626,0.0156 -5.01562,-14.8125 z"
         style="font-size:40px;font-style:normal;font-variant:normal;font-weight:normal;font-stretch:normal;line-height:125%;letter-spacing:0px;word-spacing:0px;fill:#ffffff;fill-opacity:1;stroke:#000000;stroke-width:0.1;font-family:Fugaz One;-inkscape-font-specification:Fugaz One" />
      <path
         style="font-size:40px;font-style:normal;font-variant:normal;font-weight:normal;font-stretch:normal;line-height:125%;letter-spacing:0px;word-spacing:0px;fill:#ffffff;fill-opacity:1;stroke:#000000;stroke-width:0.1;font-family:Fugaz One;-inkscape-font-specification:Fugaz One"
         d="m 205.6399,442.53645 -4.78125,27.125 5.5625,0 2.78906,-16.15625 1.04688,-0.0546 5.19531,16.21094 5.96875,0 4.71875,-27.125 -5.5,0 -2.67187,14.79687 -1.15626,0.0156 -5.01562,-14.8125 z"
         id="path3977"
         inkscape:connector-curvature="0"
         sodipodi:nodetypes="ccccccccccccc" />
      <path
         sodipodi:nodetypes="ccccccccccccc"
         inkscape:connector-curvature="0"
         id="path3979"
         d="m 205.4524,442.34895 -4.78125,27.125 5.5625,0 2.78906,-16.15625 1.04688,-0.0546 5.19531,16.21094 5.96875,0 4.71875,-27.125 -5.5,0 -2.67187,14.79687 -1.15626,0.0156 -5.01562,-14.8125 z"
         style="font-size:40px;font-style:normal;font-variant:normal;font-weight:normal;font-stretch:normal;line-height:125%;letter-spacing:0px;word-spacing:0px;fill:#ffffff;fill-opacity:1;stroke:#000000;stroke-width:0.1;font-family:Fugaz One;-inkscape-font-specification:Fugaz One" />
      <path
         style="font-size:40px;font-style:normal;font-variant:normal;font-weight:normal;font-stretch:normal;line-height:125%;letter-spacing:0px;word-spacing:0px;fill:#ffffff;fill-opacity:1;stroke:#000000;stroke-width:0.1;font-family:Fugaz One;-inkscape-font-specification:Fugaz One"
         d="m 205.2649,442.16145 -4.78125,27.125 5.5625,0 2.78906,-16.15625 1.04688,-0.0546 5.19531,16.21094 5.96875,0 4.71875,-27.125 -5.5,0 -2.67187,14.79687 -1.15626,0.0156 -5.01562,-14.8125 z"
         id="path3981"
         inkscape:connector-curvature="0"
         sodipodi:nodetypes="ccccccccccccc" />
      <path
         sodipodi:nodetypes="ccccccccccccc"
         inkscape:connector-curvature="0"
         id="path3983"
         d="m 205.0774,441.97395 -4.78125,27.125 5.5625,0 2.78906,-16.15625 1.04688,-0.0546 5.19531,16.21094 5.96875,0 4.71875,-27.125 -5.5,0 -2.67187,14.79687 -1.15626,0.0156 -5.01562,-14.8125 z"
         style="font-size:40px;font-style:normal;font-variant:normal;font-weight:normal;font-stretch:normal;line-height:125%;letter-spacing:0px;word-spacing:0px;fill:#ffffff;fill-opacity:1;stroke:#000000;stroke-width:0.1;font-family:Fugaz One;-inkscape-font-specification:Fugaz One" />
      <path
         style="font-size:40px;font-style:normal;font-variant:normal;font-weight:normal;font-stretch:normal;line-height:125%;letter-spacing:0px;word-spacing:0px;fill:#ffffff;fill-opacity:1;stroke:#000000;stroke-width:0.1;font-family:Fugaz One;-inkscape-font-specification:Fugaz One"
         d="m 204.8899,441.78645 -4.78125,27.125 5.5625,0 2.78906,-16.15625 1.04688,-0.0546 5.19531,16.21094 5.96875,0 4.71875,-27.125 -5.5,0 -2.67187,14.79687 -1.15626,0.0156 -5.01562,-14.8125 z"
         id="path3985"
         inkscape:connector-curvature="0"
         sodipodi:nodetypes="ccccccccccccc" />
      <path
         sodipodi:nodetypes="ccccccccccccc"
         inkscape:connector-curvature="0"
         id="path3987"
         d="m 204.7024,441.59895 -4.78125,27.125 5.5625,0 2.78906,-16.15625 1.04688,-0.0546 5.19531,16.21094 5.96875,0 4.71875,-27.125 -5.5,0 -2.67187,14.79687 -1.15626,0.0156 -5.01562,-14.8125 z"
         style="font-size:40px;font-style:normal;font-variant:normal;font-weight:normal;font-stretch:normal;line-height:125%;letter-spacing:0px;word-spacing:0px;fill:#ffffff;fill-opacity:1;stroke:#000000;stroke-width:0.1;font-family:Fugaz One;-inkscape-font-specification:Fugaz One" />
      <path
         style="font-size:40px;font-style:normal;font-variant:normal;font-weight:normal;font-stretch:normal;line-height:125%;letter-spacing:0px;word-spacing:0px;fill:#ffffff;fill-opacity:1;stroke:#000000;stroke-width:0.1;font-family:Fugaz One;-inkscape-font-specification:Fugaz One"
         d="m 204.5149,441.41145 -4.78125,27.125 5.5625,0 2.78906,-16.15625 1.04688,-0.0546 5.19531,16.21094 5.96875,0 4.71875,-27.125 -5.5,0 -2.67187,14.79687 -1.15626,0.0156 -5.01562,-14.8125 z"
         id="path3989"
         inkscape:connector-curvature="0"
         sodipodi:nodetypes="ccccccccccccc" />
      <path
         sodipodi:nodetypes="ccccccccccccc"
         inkscape:connector-curvature="0"
         id="path3991"
         d="m 204.3274,441.22395 -4.78125,27.125 5.5625,0 2.78906,-16.15625 1.04688,-0.0546 5.19531,16.21094 5.96875,0 4.71875,-27.125 -5.5,0 -2.67187,14.79687 -1.15626,0.0156 -5.01562,-14.8125 z"
         style="font-size:40px;font-style:normal;font-variant:normal;font-weight:normal;font-stretch:normal;line-height:125%;letter-spacing:0px;word-spacing:0px;fill:#ffffff;fill-opacity:1;stroke:#000000;stroke-width:0.1;font-family:Fugaz One;-inkscape-font-specification:Fugaz One" />
      <path
         style="font-size:40px;font-style:normal;font-variant:normal;font-weight:normal;font-stretch:normal;line-height:125%;letter-spacing:0px;word-spacing:0px;fill:#ffffff;fill-opacity:1;stroke:#000000;stroke-width:0.1;font-family:Fugaz One;-inkscape-font-specification:Fugaz One"
         d="m 204.1399,441.03645 -4.78125,27.125 5.5625,0 2.78906,-16.15625 1.04688,-0.0546 5.19531,16.21094 5.96875,0 4.71875,-27.125 -5.5,0 -2.67187,14.79687 -1.15626,0.0156 -5.01562,-14.8125 z"
         id="path3993"
         inkscape:connector-curvature="0"
         sodipodi:nodetypes="ccccccccccccc" />
      <path
         sodipodi:nodetypes="ccccccccccccc"
         inkscape:connector-curvature="0"
         id="path3995"
         d="m 203.9524,440.84895 -4.78125,27.125 5.5625,0 2.78906,-16.15625 1.04688,-0.0546 5.19531,16.21094 5.96875,0 4.71875,-27.125 -5.5,0 -2.67187,14.79687 -1.15626,0.0156 -5.01562,-14.8125 z"
         style="font-size:40px;font-style:normal;font-variant:normal;font-weight:normal;font-stretch:normal;line-height:125%;letter-spacing:0px;word-spacing:0px;fill:#ffffff;fill-opacity:1;stroke:#000000;stroke-width:0.1;font-family:Fugaz One;-inkscape-font-specification:Fugaz One" />
      <path
         style="font-size:40px;font-style:normal;font-variant:normal;font-weight:normal;font-stretch:normal;line-height:125%;letter-spacing:0px;word-spacing:0px;fill:#ffffff;fill-opacity:1;stroke:#000000;stroke-width:0.1;font-family:Fugaz One;-inkscape-font-specification:Fugaz One"
         d="m 203.7649,440.66145 -4.78125,27.125 5.5625,0 2.78906,-16.15625 1.04688,-0.0546 5.19531,16.21094 5.96875,0 4.71875,-27.125 -5.5,0 -2.67187,14.79687 -1.15626,0.0156 -5.01562,-14.8125 z"
         id="path3997"
         inkscape:connector-curvature="0"
         sodipodi:nodetypes="ccccccccccccc" />
      <path
         sodipodi:nodetypes="ccccccccccccc"
         inkscape:connector-curvature="0"
         id="path3999"
         d="m 203.5774,440.47395 -4.78125,27.125 5.5625,0 2.78906,-16.15625 1.04688,-0.0546 5.19531,16.21094 5.96875,0 4.71875,-27.125 -5.5,0 -2.67187,14.79687 -1.15626,0.0156 -5.01562,-14.8125 z"
         style="font-size:40px;font-style:normal;font-variant:normal;font-weight:normal;font-stretch:normal;line-height:125%;letter-spacing:0px;word-spacing:0px;fill:#ffffff;fill-opacity:1;stroke:#000000;stroke-width:0.1;font-family:Fugaz One;-inkscape-font-specification:Fugaz One" />
      <path
         style="font-size:40px;font-style:normal;font-variant:normal;font-weight:normal;font-stretch:normal;line-height:125%;letter-spacing:0px;word-spacing:0px;fill:#ffffff;fill-opacity:1;stroke:#000000;stroke-width:0.1;font-family:Fugaz One;-inkscape-font-specification:Fugaz One"
         d="m 203.3899,440.28645 -4.78125,27.125 5.5625,0 2.78906,-16.15625 1.04688,-0.0546 5.19531,16.21094 5.96875,0 4.71875,-27.125 -5.5,0 -2.67187,14.79687 -1.15626,0.0156 -5.01562,-14.8125 z"
         id="path4001"
         inkscape:connector-curvature="0"
         sodipodi:nodetypes="ccccccccccccc" />
    </g>
    <g
       id="g4085"
       transform="translate(61.164736,-37.830213)">
      <rect
         style="fill:#333333;fill-opacity:0.94117647;stroke:none"
         id="rect4007"
         width="35"
         height="35"
         x="157.08389"
         y="475.83517"
         ry="3.1885846" />
      <text
         xml:space="preserve"
         style="font-size:40px;font-style:normal;font-variant:normal;font-weight:normal;font-stretch:normal;line-height:125%;letter-spacing:0px;word-spacing:0px;fill:#000000;fill-opacity:1;stroke:none;font-family:Fugaz One;-inkscape-font-specification:Fugaz One"
         x="161.85165"
         y="509.24939"
         id="text4009"
         sodipodi:linespacing="125%"><tspan
           sodipodi:role="line"
           id="tspan4011"
           x="161.85165"
           y="509.24939">N</tspan></text>
      <path
         style="font-size:40px;font-style:normal;font-variant:normal;font-weight:normal;font-stretch:normal;line-height:125%;letter-spacing:0px;word-spacing:0px;fill:#ffffff;fill-opacity:1;stroke:#000000;stroke-width:0.1;font-family:Fugaz One;-inkscape-font-specification:Fugaz One"
         d="m 168.38291,481.29344 -4.78125,27.125 5.5625,0 2.78906,-16.15625 1.04688,-0.0546 5.19531,16.21094 5.96875,0 4.71875,-27.125 -5.5,0 -2.67187,14.79687 -1.15626,0.0156 -5.01562,-14.8125 z"
         id="path4013"
         inkscape:connector-curvature="0"
         sodipodi:nodetypes="ccccccccccccc" />
      <path
         style="font-size:40px;font-style:normal;font-variant:normal;font-weight:normal;font-stretch:normal;line-height:125%;letter-spacing:0px;word-spacing:0px;fill:#ffffff;fill-opacity:1;stroke:#000000;stroke-width:0.1;font-family:Fugaz One;-inkscape-font-specification:Fugaz One"
         d="m 168.00791,480.91844 -4.78125,27.125 5.5625,0 2.78906,-16.15625 1.04688,-0.0546 5.19531,16.21094 5.96875,0 4.71875,-27.125 -5.5,0 -2.67187,14.79687 -1.15626,0.0156 -5.01562,-14.8125 z"
         id="path4015"
         inkscape:connector-curvature="0"
         sodipodi:nodetypes="ccccccccccccc" />
      <path
         style="font-size:40px;font-style:normal;font-variant:normal;font-weight:normal;font-stretch:normal;line-height:125%;letter-spacing:0px;word-spacing:0px;fill:#ffffff;fill-opacity:1;stroke:#000000;stroke-width:0.1;font-family:Fugaz One;-inkscape-font-specification:Fugaz One"
         d="m 167.63291,480.54344 -4.78125,27.125 5.5625,0 2.78906,-16.15625 1.04688,-0.0546 5.19531,16.21094 5.96875,0 4.71875,-27.125 -5.5,0 -2.67187,14.79687 -1.15626,0.0156 -5.01562,-14.8125 z"
         id="path4017"
         inkscape:connector-curvature="0"
         sodipodi:nodetypes="ccccccccccccc" />
      <path
         style="font-size:40px;font-style:normal;font-variant:normal;font-weight:normal;font-stretch:normal;line-height:125%;letter-spacing:0px;word-spacing:0px;fill:#ffffff;fill-opacity:1;stroke:#000000;stroke-width:0.1;font-family:Fugaz One;-inkscape-font-specification:Fugaz One"
         d="m 167.25791,480.16844 -4.78125,27.125 5.5625,0 2.78906,-16.15625 1.04688,-0.0546 5.19531,16.21094 5.96875,0 4.71875,-27.125 -5.5,0 -2.67187,14.79687 -1.15626,0.0156 -5.01562,-14.8125 z"
         id="path4019"
         inkscape:connector-curvature="0"
         sodipodi:nodetypes="ccccccccccccc" />
      <path
         style="font-size:40px;font-style:normal;font-variant:normal;font-weight:normal;font-stretch:normal;line-height:125%;letter-spacing:0px;word-spacing:0px;fill:#ffffff;fill-opacity:1;stroke:#000000;stroke-width:0.1;font-family:Fugaz One;-inkscape-font-specification:Fugaz One"
         d="m 166.88291,479.79344 -4.78125,27.125 5.5625,0 2.78906,-16.15625 1.04688,-0.0546 5.19531,16.21094 5.96875,0 4.71875,-27.125 -5.5,0 -2.67187,14.79687 -1.15626,0.0156 -5.01562,-14.8125 z"
         id="path4021"
         inkscape:connector-curvature="0"
         sodipodi:nodetypes="ccccccccccccc" />
      <path
         style="font-size:40px;font-style:normal;font-variant:normal;font-weight:normal;font-stretch:normal;line-height:125%;letter-spacing:0px;word-spacing:0px;fill:#ffffff;fill-opacity:1;stroke:#000000;stroke-width:0.1;font-family:Fugaz One;-inkscape-font-specification:Fugaz One"
         d="m 166.50791,479.41844 -4.78125,27.125 5.5625,0 2.78906,-16.15625 1.04688,-0.0546 5.19531,16.21094 5.96875,0 4.71875,-27.125 -5.5,0 -2.67187,14.79687 -1.15626,0.0156 -5.01562,-14.8125 z"
         id="path4023"
         inkscape:connector-curvature="0"
         sodipodi:nodetypes="ccccccccccccc" />
      <path
         style="font-size:40px;font-style:normal;font-variant:normal;font-weight:normal;font-stretch:normal;line-height:125%;letter-spacing:0px;word-spacing:0px;fill:#ffffff;fill-opacity:1;stroke:#000000;stroke-width:0.1;font-family:Fugaz One;-inkscape-font-specification:Fugaz One"
         d="m 166.13291,479.04344 -4.78125,27.125 5.5625,0 2.78906,-16.15625 1.04688,-0.0546 5.19531,16.21094 5.96875,0 4.71875,-27.125 -5.5,0 -2.67187,14.79687 -1.15626,0.0156 -5.01562,-14.8125 z"
         id="path4025"
         inkscape:connector-curvature="0"
         sodipodi:nodetypes="ccccccccccccc" />
      <path
         style="font-size:40px;font-style:normal;font-variant:normal;font-weight:normal;font-stretch:normal;line-height:125%;letter-spacing:0px;word-spacing:0px;fill:#ffffff;fill-opacity:1;stroke:#000000;stroke-width:0.1;font-family:Fugaz One;-inkscape-font-specification:Fugaz One"
         d="m 165.75791,478.66844 -4.78125,27.125 5.5625,0 2.78906,-16.15625 1.04688,-0.0546 5.19531,16.21094 5.96875,0 4.71875,-27.125 -5.5,0 -2.67187,14.79687 -1.15626,0.0156 -5.01562,-14.8125 z"
         id="path4027"
         inkscape:connector-curvature="0"
         sodipodi:nodetypes="ccccccccccccc" />
      <path
         style="font-size:40px;font-style:normal;font-variant:normal;font-weight:normal;font-stretch:normal;line-height:125%;letter-spacing:0px;word-spacing:0px;fill:#ffffff;fill-opacity:1;stroke:#000000;stroke-width:0.1;font-family:Fugaz One;-inkscape-font-specification:Fugaz One"
         d="m 165.38291,478.29344 -4.78125,27.125 5.5625,0 2.78906,-16.15625 1.04688,-0.0546 5.19531,16.21094 5.96875,0 4.71875,-27.125 -5.5,0 -2.67187,14.79687 -1.15626,0.0156 -5.01562,-14.8125 z"
         id="path4029"
         inkscape:connector-curvature="0"
         sodipodi:nodetypes="ccccccccccccc" />
      <text
         sodipodi:linespacing="125%"
         id="text4031"
         y="505.24939"
         x="157.85165"
         style="font-size:40px;font-style:normal;font-variant:normal;font-weight:normal;font-stretch:normal;line-height:125%;letter-spacing:0px;word-spacing:0px;fill:#000000;fill-opacity:1;stroke:none;font-family:Fugaz One;-inkscape-font-specification:Fugaz One"
         xml:space="preserve"><tspan
           y="505.24939"
           x="157.85165"
           id="tspan4033"
           sodipodi:role="line">N</tspan></text>
    </g>
    <text
       sodipodi:linespacing="125%"
       id="text4101"
       y="465.39343"
       x="121.53125"
       style="font-size:40px;font-style:normal;font-variant:normal;font-weight:normal;font-stretch:normal;line-height:125%;letter-spacing:0px;word-spacing:0px;fill:#000000;fill-opacity:1;stroke:none;font-family:Fugaz One;-inkscape-font-specification:Fugaz One"
       xml:space="preserve"><tspan
         y="465.39343"
         x="121.53125"
         id="tspan4103"
         sodipodi:role="line">N</tspan></text>
    <rect
       style="fill:#333333;fill-opacity:0.94117647;stroke:none"
       id="rect4105"
       width="35"
       height="35"
       x="89.75"
       y="285.61218"
       ry="3.1885846" />
    <text
       xml:space="preserve"
       style="font-size:40px;font-style:normal;font-variant:normal;font-weight:normal;font-stretch:normal;line-height:125%;letter-spacing:0px;word-spacing:0px;fill:#000000;fill-opacity:1;stroke:none;font-family:Fugaz One;-inkscape-font-specification:Fugaz One"
       x="94.25"
       y="318.86218"
       id="text4107"
       sodipodi:linespacing="125%"><tspan
         sodipodi:role="line"
         id="tspan4109"
         x="94.25"
         y="318.86218">N</tspan></text>
    <text
       sodipodi:linespacing="125%"
       id="text4111"
       y="316.86218"
       x="92.25"
       style="font-size:40px;font-style:normal;font-variant:normal;font-weight:normal;font-stretch:normal;line-height:125%;letter-spacing:0px;word-spacing:0px;fill:#ffffff;fill-opacity:1;stroke:none;font-family:Fugaz One;-inkscape-font-specification:Fugaz One"
       xml:space="preserve"><tspan
         y="316.86218"
         x="92.25"
         id="tspan4113"
         sodipodi:role="line">N</tspan></text>
  </g>
</svg>
